<svg width="25" height="29" viewBox="0 0 25 29" fill="none" xmlns="http://www.w3.org/2000/svg">
<path d="M24.5 2.99962C24.4927 2.21844 24.1865 1.4717 23.6478 0.921305C23.1092 0.370906 22.3814 0.0612139 21.6223 0.059375L3.36385 0C2.60555 0.000154508 1.87826 0.309753 1.34141 0.860919C0.804569 1.41208 0.501985 2.15984 0.5 2.94025V22.325C0.5 23.9459 1.78538 25.175 3.36385 25.175H18.9615L18.2115 22.5625L24.5 28.5V2.99962ZM16.4606 18.6325C16.4606 18.6325 15.9575 18.0156 15.5375 17.4853C17.3687 16.9545 18.0673 15.7937 18.0673 15.7937C17.5644 16.1371 17.0254 16.4209 16.4606 16.6398C15.8084 16.9185 15.1295 17.1253 14.435 17.2568C13.2384 17.4829 12.0114 17.4781 10.8165 17.2425C10.1137 17.1082 9.4258 16.9013 8.76327 16.625C8.41278 16.4868 8.07197 16.324 7.74327 16.1375C7.70115 16.109 7.65962 16.0948 7.6175 16.0657C7.58923 16.0514 7.57538 16.0372 7.55981 16.0372C7.30827 15.8935 7.16865 15.7932 7.16865 15.7932C7.16865 15.7932 7.83904 16.9266 9.61365 17.4711C9.19423 18.0162 8.67731 18.6473 8.67731 18.6473C5.59019 18.547 4.41673 16.4819 4.41673 16.4819C4.41673 11.9065 6.42846 8.19197 6.42846 8.19197C8.44019 6.65712 10.34 6.70047 10.34 6.70047L10.4796 6.87266C7.96481 7.60416 6.81961 8.73703 6.81961 8.73703C6.81961 8.73703 7.12654 8.56484 7.64346 8.33506C9.13827 7.66116 10.3262 7.48897 10.8165 7.43197C10.8948 7.41523 10.9743 7.40549 11.0542 7.40287C11.9904 7.27786 12.9376 7.2683 13.876 7.37437C15.3493 7.54855 16.7766 8.01108 18.0812 8.73703C18.0812 8.73703 16.9775 7.65937 14.6023 6.92906L14.7979 6.69987C14.7979 6.69987 16.7115 6.65653 18.71 8.19375C18.71 8.19375 20.7217 11.9082 20.7217 16.4837C20.7217 16.4671 19.5477 18.5321 16.4606 18.6325Z" fill="white"/>
</svg>
