<svg width="26" height="26" viewBox="0 0 26 26" fill="none" xmlns="http://www.w3.org/2000/svg">
<path d="M25.8497 11.2851L25.7186 10.7393H13.6248V15.7607H20.8507C20.1005 19.2556 16.6192 21.0952 13.7757 21.0952C11.7067 21.0952 9.52567 20.2414 8.08212 18.8691C7.3205 18.1335 6.71426 17.2577 6.2981 16.292C5.88194 15.3262 5.66403 14.2894 5.65686 13.2409C5.65686 11.1258 6.6258 9.01006 8.0357 7.61837C9.4456 6.22669 11.5749 5.44802 13.6921 5.44802C16.1168 5.44802 17.8545 6.71107 18.5043 7.2871L22.1416 3.73759C21.0746 2.81777 18.1434 0.5 13.5749 0.5C10.0502 0.5 6.67048 1.82452 4.19997 4.24019C1.76195 6.61886 0.5 10.0585 0.5 13.25C0.5 16.4415 1.69406 19.7092 4.05666 22.1067C6.58113 24.6635 10.1563 26 13.8377 26C17.1873 26 20.3621 24.7125 22.6249 22.3765C24.8495 20.0769 26 16.8951 26 13.5596C26 12.1554 25.8561 11.3216 25.8497 11.2851Z" fill="white"/>
</svg>
