<svg width="16" height="16" viewBox="0 0 16 16" fill="none" xmlns="http://www.w3.org/2000/svg">
<path fill-rule="evenodd" clip-rule="evenodd" d="M15.0607 3.06066C15.6465 2.47487 15.6465 1.52513 15.0607 0.93934C14.4749 0.353553 13.5251 0.353553 12.9393 0.93934L8.00001 5.87868L3.06067 0.93934C2.47488 0.353554 1.52513 0.353554 0.939347 0.93934C0.35356 1.52513 0.35356 2.47487 0.939347 3.06066L5.87869 8L0.939347 12.9393C0.353561 13.5251 0.353561 14.4749 0.939347 15.0607C1.52513 15.6464 2.47488 15.6464 3.06067 15.0607L8.00001 10.1213L12.9393 15.0607C13.5251 15.6464 14.4749 15.6464 15.0607 15.0607C15.6465 14.4749 15.6465 13.5251 15.0607 12.9393L10.1213 8L15.0607 3.06066Z" fill="white"/>
</svg>
