<svg width="36" height="36" viewBox="0 0 36 36" fill="none" xmlns="http://www.w3.org/2000/svg">
<path d="M11.9326 18.2756C11.9326 21.6514 14.5141 24.2328 17.8898 24.2328C21.2656 24.2328 23.8471 21.6514 23.8471 18.2756C23.8471 14.8998 21.2656 12.3184 17.8898 12.3184C14.5141 12.3184 11.9326 14.8998 11.9326 18.2756Z" fill="#EEEEEE"/>
<path fill-rule="evenodd" clip-rule="evenodd" d="M34.6084 6.53101C35.0037 7.91468 35.399 9.49602 35.399 10.8797C35.5967 12.6587 35.5967 13.4494 35.5967 18.1934C35.5967 21.0764 35.5238 22.4264 35.4664 23.4855C35.4295 24.1693 35.399 24.7316 35.399 25.5071C35.399 27.0884 35.2014 28.4721 34.6084 29.8557C33.8177 32.2278 31.841 34.0068 29.469 34.9951C28.0854 35.3904 26.504 35.7858 25.1203 35.7858C23.3413 35.9834 22.5507 35.9834 17.8067 35.9834C13.0626 35.9834 12.272 35.9834 10.493 35.7858C8.91163 35.7858 7.52796 35.5881 6.14429 34.9951C4.95828 34.5998 3.77228 34.0068 2.98161 33.0184C2.19094 32.0301 1.40027 31.0417 1.00494 29.8557C0.609603 28.4721 0.214269 26.8907 0.214269 25.5071C0.0166016 23.7281 0.0166016 22.9374 0.0166016 18.1934C0.0166016 13.4494 0.0166016 12.6587 0.214269 10.8797C0.214269 9.29835 0.411936 7.91468 1.00494 6.53101C1.40027 5.345 1.99327 4.159 2.98161 3.36833C3.96995 2.57766 4.95828 1.78699 6.14429 1.39166C7.52796 0.996322 9.1093 0.600988 10.493 0.600988C12.272 0.40332 13.0626 0.40332 17.8067 0.40332C22.5507 0.40332 23.3413 0.40332 25.1203 0.600988C26.7017 0.600988 28.0854 0.798655 29.469 1.39166C30.655 1.78699 31.841 2.37999 32.6317 3.36833C33.4224 4.35667 34.213 5.345 34.6084 6.53101ZM27.2947 10.8797C28.4807 10.8797 29.469 9.89135 29.469 8.70535C29.469 7.51934 28.4807 6.53101 27.2947 6.53101C26.1087 6.53101 25.1203 7.51934 25.1203 8.70535C25.1203 9.89135 26.1087 10.8797 27.2947 10.8797ZM8.71473 18.1932C8.71473 13.0538 12.6681 9.10048 17.8074 9.10048C22.9468 9.10048 26.9001 13.0538 26.9001 18.1932C26.9001 23.1349 22.7491 27.2859 17.8074 27.2859C12.8657 27.2859 8.71473 23.3325 8.71473 18.1932Z" fill="#EEEEEE"/>
</svg>
