<svg width="44" height="25" viewBox="0 0 44 25" fill="none" xmlns="http://www.w3.org/2000/svg">
<path fill-rule="evenodd" clip-rule="evenodd" d="M39.0931 17.3736C39.0931 17.3736 42.557 20.7946 43.4138 22.3777C43.4374 22.412 43.4481 22.4377 43.4524 22.4527C43.8016 23.0375 43.8872 23.4959 43.7159 23.8344C43.4267 24.3935 42.4477 24.6741 42.1157 24.6977C42.1157 24.6977 36.1647 24.6977 35.9934 24.6977C35.5671 24.6977 34.6802 24.5863 33.6005 23.8408C32.7758 23.2645 31.9554 22.3156 31.1606 21.388C29.9739 20.0106 28.9478 18.8153 27.9088 18.8153C27.776 18.8153 27.6475 18.8367 27.5232 18.8795C26.737 19.128 25.7388 20.2484 25.7388 23.2324C25.7388 24.1664 25.0019 24.6977 24.4856 24.6977C24.4856 24.6977 21.8122 24.6977 21.6815 24.6977C20.7261 24.6977 15.752 24.3635 11.3413 19.7128C5.9366 14.0189 1.08245 2.5969 1.03532 2.49622C0.733273 1.75717 1.36735 1.35445 2.05285 1.35445H8.23514C9.06416 1.35445 9.33408 1.85571 9.52259 2.30557C9.74109 2.82183 10.5508 4.88688 11.879 7.20685C14.0297 10.9814 15.3514 12.5173 16.4075 12.5173C16.6067 12.5173 16.7952 12.468 16.973 12.3673C18.3526 11.609 18.0955 6.68202 18.0313 5.66663C18.0313 5.46955 18.0291 3.46662 17.3222 2.49836C16.8167 1.8043 15.9555 1.53439 15.435 1.43585C15.5742 1.23448 15.8698 0.926012 16.249 0.743928C17.1937 0.272651 18.901 0.204102 20.5954 0.204102H21.5359C23.3738 0.229808 23.8494 0.347627 24.5178 0.516858C25.863 0.838183 25.8887 1.71005 25.7709 4.67909C25.7367 5.52739 25.7002 6.4828 25.7002 7.60744C25.7002 7.84736 25.6895 8.11513 25.6895 8.38719C25.6488 9.91027 25.5953 11.6261 26.6706 12.3309C26.8077 12.4166 26.9684 12.4637 27.1355 12.4637C27.5082 12.4637 28.6243 12.4637 31.6512 7.26897C32.9793 4.97471 34.0076 2.26915 34.0783 2.06565C34.1382 1.95211 34.3182 1.63293 34.5367 1.5044C34.7038 1.40157 34.9266 1.38444 35.0422 1.38444H42.3149C43.1075 1.38444 43.6452 1.5044 43.7501 1.8043C43.9258 2.29057 43.7159 3.7751 40.3955 8.26508C39.8364 9.0127 39.3458 9.65963 38.9153 10.2252C35.9055 14.1753 35.9055 14.3745 39.0931 17.3736Z" fill="white"/>
</svg>
