<svg width="25" height="25" viewBox="0 0 25 25" fill="none" xmlns="http://www.w3.org/2000/svg">
<path fill-rule="evenodd" clip-rule="evenodd" d="M16.4527 4.30527C16.7295 4.01874 17.0605 3.79019 17.4265 3.63297C17.7925 3.47574 18.1862 3.39298 18.5845 3.38952C18.9829 3.38606 19.3779 3.46196 19.7466 3.61281C20.1153 3.76365 20.4502 3.98641 20.7319 4.26809C21.0136 4.54976 21.2364 4.88472 21.3872 5.25341C21.538 5.6221 21.6139 6.01714 21.6105 6.41547C21.607 6.81381 21.5243 7.20747 21.367 7.57349C21.2098 7.9395 20.9813 8.27053 20.6947 8.54727L16.1947 13.0473C15.6321 13.6097 14.8692 13.9256 14.0737 13.9256C13.2782 13.9256 12.5153 13.6097 11.9527 13.0473C11.6698 12.774 11.2909 12.6228 10.8976 12.6263C10.5043 12.6297 10.1281 12.7874 9.85 13.0655C9.57189 13.3437 9.41414 13.7199 9.41072 14.1132C9.4073 14.5065 9.55849 14.8854 9.83173 15.1683C10.9569 16.2931 12.4827 16.925 14.0737 16.925C15.6647 16.925 17.1906 16.2931 18.3157 15.1683L22.8157 10.6683C23.9087 9.53666 24.5134 8.02104 24.4998 6.44786C24.4861 4.87468 23.8551 3.36981 22.7426 2.25736C21.6302 1.14491 20.1253 0.513897 18.5521 0.500227C16.979 0.486556 15.4633 1.09132 14.3317 2.18427L12.0817 4.43427C11.9385 4.57264 11.8242 4.73816 11.7456 4.92116C11.667 5.10417 11.6256 5.301 11.6239 5.50017C11.6221 5.69934 11.6601 5.89686 11.7355 6.0812C11.8109 6.26555 11.9223 6.43302 12.0631 6.57386C12.204 6.7147 12.3715 6.82608 12.5558 6.9015C12.7401 6.97692 12.9377 7.01488 13.1368 7.01315C13.336 7.01142 13.5328 6.97004 13.7158 6.89142C13.8988 6.81281 14.0644 6.69854 14.2027 6.55527L16.4527 4.30527ZM8.95273 11.8053C9.51531 11.2429 10.2782 10.9269 11.0737 10.9269C11.8692 10.9269 12.6321 11.2429 13.1947 11.8053C13.3331 11.9485 13.4986 12.0628 13.6816 12.1414C13.8646 12.22 14.0615 12.2614 14.2606 12.2631C14.4598 12.2649 14.6573 12.2269 14.8417 12.1515C15.026 12.0761 15.1935 11.9647 15.3343 11.8239C15.4752 11.683 15.5865 11.5155 15.662 11.3312C15.7374 11.1469 15.7753 10.9493 15.7736 10.7502C15.7719 10.551 15.7305 10.3542 15.6519 10.1712C15.5733 9.98816 15.459 9.82264 15.3157 9.68427C14.1906 8.55945 12.6647 7.92755 11.0737 7.92755C9.48274 7.92755 7.9569 8.55945 6.83173 9.68427L2.33173 14.1843C1.75867 14.7378 1.30158 15.3998 0.987121 16.1318C0.672667 16.8639 0.507149 17.6512 0.500227 18.4479C0.493304 19.2445 0.645114 20.0346 0.946799 20.772C1.24848 21.5094 1.694 22.1793 2.25736 22.7426C2.82072 23.306 3.49063 23.7515 4.22801 24.0532C4.96538 24.3549 5.75546 24.5067 6.55214 24.4998C7.34881 24.4929 8.13613 24.3273 8.86816 24.0129C9.60018 23.6984 10.2622 23.2413 10.8157 22.6683L13.0657 20.4183C13.209 20.2799 13.3233 20.1144 13.4019 19.9314C13.4805 19.7484 13.5219 19.5515 13.5236 19.3524C13.5253 19.1532 13.4874 18.9557 13.412 18.7713C13.3365 18.587 13.2252 18.4195 13.0843 18.2787C12.9435 18.1378 12.776 18.0265 12.5917 17.951C12.4073 17.8756 12.2098 17.8377 12.0106 17.8394C11.8115 17.8411 11.6146 17.8825 11.4316 17.9611C11.2486 18.0397 11.0831 18.154 10.9447 18.2973L8.69473 20.5473C8.41799 20.8338 8.08696 21.0623 7.72094 21.2196C7.35493 21.3768 6.96127 21.4596 6.56293 21.463C6.1646 21.4665 5.76956 21.3906 5.40087 21.2397C5.03218 21.0889 4.69722 20.8661 4.41554 20.5845C4.13387 20.3028 3.91111 19.9678 3.76026 19.5991C3.60942 19.2304 3.53352 18.8354 3.53698 18.4371C3.54044 18.0387 3.6232 17.6451 3.78043 17.2791C3.93765 16.913 4.1662 16.582 4.45273 16.3053L8.95273 11.8053Z" fill="white"/>
</svg>
