<svg width="40" height="32" viewBox="0 0 40 32" fill="none" xmlns="http://www.w3.org/2000/svg">
<path d="M35.2235 8.42533C35.2401 8.76055 35.2463 9.0999 35.2463 9.43512C35.2463 19.7606 27.3454 31.6629 12.8982 31.6629C8.4598 31.6629 4.33351 30.3696 0.856445 28.1514C1.47237 28.2238 2.09662 28.261 2.72919 28.261C6.41226 28.261 9.79778 27.0112 12.4841 24.9192C9.04868 24.8551 6.14592 22.5996 5.14712 19.4957C5.62571 19.5847 6.11887 19.6323 6.62451 19.6323C7.3424 19.6323 8.03739 19.5392 8.69494 19.3612C5.10134 18.6412 2.39418 15.4856 2.39418 11.6989C2.39418 11.6658 2.39418 11.6347 2.39418 11.6016C3.45332 12.1872 4.66645 12.539 5.9524 12.5804C3.84452 11.1774 2.4566 8.78952 2.4566 6.07675C2.4566 4.64691 2.84364 3.30397 3.52199 2.14934C7.39442 6.87754 13.1854 9.98554 19.7129 10.3125C19.5798 9.7393 19.5111 9.14543 19.5111 8.53086C19.5111 4.21857 23.0256 0.723633 27.3642 0.723633C29.6239 0.723633 31.6652 1.66927 33.0989 3.18809C34.8864 2.83632 36.5677 2.18658 38.0867 1.29267C37.4999 3.11567 36.2535 4.64691 34.6325 5.61324C36.2223 5.42287 37.7329 5.00695 39.1437 4.38411C38.0908 5.95259 36.7591 7.32657 35.2235 8.42533Z" fill="white"/>
</svg>
