<svg width="699" height="468" viewBox="0 0 699 468" fill="none" xmlns="http://www.w3.org/2000/svg">
<path fill-rule="evenodd" clip-rule="evenodd" d="M149.299 124.219C139.744 114.665 139.744 99.174 149.299 89.6196L228.169 10.7493C241.837 -2.91903 263.998 -2.91905 277.666 10.7493L400.4 133.483C414.069 147.152 436.23 147.152 449.898 133.483L462.632 120.749C476.3 107.081 498.461 107.081 512.129 120.749L687.981 296.601C701.649 310.269 701.649 332.43 687.981 346.098L616.559 417.52C602.891 431.188 580.73 431.188 567.062 417.52L427.936 278.393C423.32 273.778 415.838 273.778 411.223 278.393C406.607 283.008 406.607 290.491 411.223 295.106L452.406 336.289C466.074 349.958 466.074 372.118 452.405 385.787L380.984 457.208C367.316 470.876 345.155 470.876 331.487 457.208L236.046 361.768C222.378 348.099 200.217 348.099 186.549 361.768L130.799 417.517C117.13 431.186 94.9697 431.186 81.3014 417.517L10.7474 346.963C-2.92102 333.295 -2.92102 311.134 10.7473 297.466L91.222 216.991C91.2352 216.978 91.2352 216.957 91.222 216.943C91.2088 216.93 91.2088 216.909 91.222 216.896L149.299 158.819C158.853 149.264 158.853 133.774 149.299 124.219Z" fill="#9E00FF"/>
</svg>
