<svg width="686" height="465" viewBox="0 0 686 465" fill="none" xmlns="http://www.w3.org/2000/svg">
<path fill-rule="evenodd" clip-rule="evenodd" d="M214.865 114.438C214.861 114.434 214.861 114.427 214.865 114.423L319.037 10.2513C332.705 -3.41709 354.866 -3.41709 368.534 10.2513L413.154 54.8716C413.155 54.8721 413.156 54.8721 413.156 54.8716C413.157 54.8711 413.158 54.8711 413.158 54.8716L675.341 317.054C689.009 330.723 689.009 352.883 675.341 366.552L587.997 453.896C574.328 467.564 552.168 467.564 538.499 453.896L477.074 392.471C463.406 378.802 441.245 378.802 427.577 392.471L365.595 454.453C351.926 468.121 329.765 468.121 316.097 454.453L256.09 394.445C242.421 380.777 220.26 380.777 206.592 394.445L146.585 454.452C132.917 468.121 110.756 468.121 97.0875 454.452L10.7252 368.09C-2.94318 354.422 -2.94318 332.261 10.7252 318.593L214.865 114.453C214.869 114.449 214.869 114.442 214.865 114.438Z" fill="#9E00FF"/>
</svg>
