<svg width="0" height="0" xmlns="http://www.w3.org/2000/svg">
								<clipPath id="mask-retarget">
									<path fill-rule="evenodd" clip-rule="evenodd"
										d="M7.61522 343.31C-2.53841 333.156 -2.5384 316.694 7.61523 306.541L76.2185 237.937C86.3721 227.784 86.3721 211.321 76.2185 201.168L51.9238 176.873C41.7702 166.719 41.7702 150.257 51.9238 140.104L184.243 7.78417C194.397 -2.36946 210.859 -2.36946 221.013 7.78417L248.179 34.9505C258.333 45.1041 274.795 45.1041 284.949 34.9505L310.261 9.63827C320.414 -0.515369 336.877 -0.515366 347.03 9.63826L638.476 301.084C648.63 311.238 648.63 327.7 638.476 337.854L470.686 505.644C460.532 515.797 444.07 515.797 433.916 505.644L336.436 408.163C326.282 398.009 309.82 398.009 299.666 408.163L204.452 503.377C194.298 513.531 177.836 513.531 167.682 503.377L7.61522 343.31Z"
										fill="#D9D9D9" />
								</clipPath>
							</svg>